--------------- Kasia_solo_ --------------


Video
Format                           : VP6 ----Flash Video
Duration                         : 16mn 32s
Bit rate                         : 460 Kbps
Width                            : 640 pixels
Height                           : 480 pixels
Display aspect ratio             : 4/3
Frame rate                       : 30.000 fps
Bits/(Pixel*Frame)               : 0.050
Stream size                      : 56.1 MiB (90%)

Audio
Format                           : MPEG Audio
Format version                   : Version 2
Format profile                   : Layer 3
Duration                         : 16mn 32s
Bit rate mode                    : Constant
Bit rate                         : 48.0 Kbps
Channel(s)                       : 1 channel
Sampling rate                    : 22.05 KHz
Resolution                       : 16 bits
Stream size                      : 6.12 MiB (10%)
Writing library                  : LAME3.98.2

